<?xml version="1.0" encoding="UTF-8" standalone="no"?>
<!-- Created with Inkscape (http://www.inkscape.org/) -->

<svg
   xmlns:dc="http://purl.org/dc/elements/1.1/"
   xmlns:cc="http://creativecommons.org/ns#"
   xmlns:rdf="http://www.w3.org/1999/02/22-rdf-syntax-ns#"
   xmlns:svg="http://www.w3.org/2000/svg"
   xmlns="http://www.w3.org/2000/svg"
   xmlns:sodipodi="http://sodipodi.sourceforge.net/DTD/sodipodi-0.dtd"
   xmlns:inkscape="http://www.inkscape.org/namespaces/inkscape"
   width="100"
   height="100"
   viewBox="0 0 99.999997 100"
   id="svg2"
   version="1.1"
   inkscape:version="0.91 r13725"
   sodipodi:docname="Arrow.svg">
  <defs
     id="defs4">
    <inkscape:path-effect
       effect="skeletal"
       id="path-effect4223"
       is_visible="true"
       pattern="m -73.391645,957.70836 c 0,-2.76 2.24,-5 5,-5 2.76,0 5,2.24 5,5 0,2.76 -2.24,5 -5,5 -2.76,0 -5,-2.24 -5,-5 z"
       copytype="single_stretched"
       prop_scale="0.5"
       scale_y_rel="false"
       spacing="0"
       normal_offset="0"
       tang_offset="0"
       prop_units="false"
       vertical_pattern="false"
       fuse_tolerance="0" />
    <inkscape:path-effect
       fuse_tolerance="0"
       vertical_pattern="false"
       prop_units="false"
       tang_offset="0"
       normal_offset="0"
       spacing="0"
       scale_y_rel="false"
       prop_scale="0.5"
       copytype="single_stretched"
       pattern="m -92.17642,954.83678 c 0,-2.76 2.24,-5 5,-5 2.76,0 5,2.24 5,5 0,2.76 -2.24,5 -5,5 -2.76,0 -5,-2.24 -5,-5 z"
       is_visible="true"
       id="path-effect4219"
       effect="skeletal" />
    <inkscape:path-effect
       fuse_tolerance="0"
       vertical_pattern="false"
       prop_units="false"
       tang_offset="0"
       normal_offset="0"
       spacing="0"
       scale_y_rel="false"
       prop_scale="0.5"
       copytype="single_stretched"
       pattern="m -100.10971,949.71206 c 0,-2.76 2.240003,-5 5.000003,-5 2.76,0 5,2.24 5,5 0,2.76 -2.24,5 -5,5 -2.76,0 -5.000003,-2.24 -5.000003,-5 z"
       is_visible="true"
       id="path-effect4215"
       effect="skeletal" />
    <inkscape:path-effect
       fuse_tolerance="0"
       vertical_pattern="false"
       prop_units="false"
       tang_offset="0"
       normal_offset="0"
       spacing="0"
       scale_y_rel="false"
       prop_scale="0.5"
       copytype="single_stretched"
       pattern="m 124.21806,993.75133 c 0,-2.76 2.24,-5 5,-5 2.76,0 5,2.24 5,5 0,2.76 -2.24,5 -5,5 -2.76,0 -5,-2.24 -5,-5 z"
       is_visible="true"
       id="path-effect4211"
       effect="skeletal" />
    <inkscape:path-effect
       effect="skeletal"
       id="path-effect4207"
       is_visible="true"
       pattern="m 105.43329,990.87975 c 0,-2.76 2.24,-5 5,-5 2.76,0 5,2.24 5,5 0,2.76 -2.24,5 -5,5 -2.76,0 -5,-2.24 -5,-5 z"
       copytype="single_stretched"
       prop_scale="0.5"
       scale_y_rel="false"
       spacing="0"
       normal_offset="0"
       tang_offset="0"
       prop_units="false"
       vertical_pattern="false"
       fuse_tolerance="0" />
    <inkscape:path-effect
       effect="skeletal"
       id="path-effect4176"
       is_visible="true"
       pattern="m 5.2401664,961.65531 c 0,-2.76 2.24,-5 4.9999996,-5 2.76,0 5,2.24 5,5 0,2.76 -2.24,5 -5,5 -2.7599996,0 -4.9999996,-2.24 -4.9999996,-5 z"
       copytype="single_stretched"
       prop_scale="0.5"
       scale_y_rel="false"
       spacing="0"
       normal_offset="0"
       tang_offset="0"
       prop_units="false"
       vertical_pattern="false"
       fuse_tolerance="0" />
    <inkscape:path-effect
       effect="skeletal"
       id="path-effect4152"
       is_visible="true"
       pattern="m 97.5,985.75503 c 0,-2.76 2.24,-5 5,-5 2.76,0 5,2.24 5,5 0,2.76 -2.24,5 -5,5 -2.76,0 -5,-2.24 -5,-5 z"
       copytype="single_stretched"
       prop_scale="0.5"
       scale_y_rel="false"
       spacing="0"
       normal_offset="0"
       tang_offset="0"
       prop_units="false"
       vertical_pattern="false"
       fuse_tolerance="0" />
  </defs>
  <sodipodi:namedview
     id="base"
     pagecolor="#ffffff"
     bordercolor="#666666"
     borderopacity="1.0"
     inkscape:pageopacity="0.0"
     inkscape:pageshadow="2"
     inkscape:zoom="2.8"
     inkscape:cx="1.9572132"
     inkscape:cy="40.844269"
     inkscape:document-units="px"
     inkscape:current-layer="layer1"
     showgrid="false"
     units="px"
     inkscape:window-width="1920"
     inkscape:window-height="1017"
     inkscape:window-x="-8"
     inkscape:window-y="-8"
     inkscape:window-maximized="1" />
  <metadata
     id="metadata7">
    <rdf:RDF>
      <cc:Work
         rdf:about="">
        <dc:format>image/svg+xml</dc:format>
        <dc:type
           rdf:resource="http://purl.org/dc/dcmitype/StillImage" />
        <dc:title></dc:title>
      </cc:Work>
    </rdf:RDF>
  </metadata>
  <g
     inkscape:label="Layer 1"
     inkscape:groupmode="layer"
     id="layer1"
     transform="translate(0,-952.36216)">
    <path
       style="fill:#000000;fill-rule:evenodd;stroke:none;stroke-width:1px;stroke-linecap:butt;stroke-linejoin:miter;stroke-opacity:1"
       d="m 106.84391,1070.1485 c 0.071,-0.8426 6.01912,-0.4477 15.40223,-2.0046 9.24208,-1.5335 22.03858,-5.1459 32.54073,-14.4536 0,0 0.008,-0.01 0.008,-0.01 10.58394,-9.2116 15.8178,-21.4315 18.53148,-30.3961 2.75505,-9.1013 3.13131,-15.0492 3.97594,-15.0108 0.50046,0.023 1.46601,6.0701 -0.53012,15.877 -1.96286,9.6434 -7.05047,22.986 -18.67743,33.2863 0,0 -0.009,0.01 -0.009,0.01 -11.71654,10.2018 -25.60747,13.5244 -35.42579,14.2257 -9.98477,0.7132 -15.85826,-1.0254 -15.8162,-1.5246 z"
       id="path4150"
       inkscape:path-effect="#path-effect4152"
       inkscape:original-d="m 106.84391,1070.1485 c 40.15219,3.3826 68.63018,-21.6568 70.45814,-61.8719"
       inkscape:connector-curvature="0" />
    <path
       style="fill:#000000;fill-rule:evenodd;stroke:none;stroke-width:1px;stroke-linecap:butt;stroke-linejoin:miter;stroke-opacity:1"
       d="m 154.17074,1030.3214 c 0.32971,-0.7312 3.01068,-0.077 6.34665,-1.4918 1.8897,-0.7813 3.71308,-2.0928 5.71294,-4.0567 0.66274,-0.6549 1.30549,-1.3566 1.92972,-2.1104 2.91062,-3.5148 4.81558,-7.4511 6.18076,-10.3504 1.37387,-2.9178 2.24283,-4.8428 2.95145,-4.7192 0.63393,0.1106 1.04229,2.2781 0.44797,5.7653 -0.59046,3.4645 -2.21983,8.1915 -5.74497,12.4711 -0.74591,0.9055 -1.53782,1.7427 -2.3672,2.5095 -2.50877,2.3324 -5.32377,3.7487 -8.03118,4.2798 -5.54899,1.0759 -7.57766,-1.9612 -7.42614,-2.2972 z"
       id="path4205"
       inkscape:path-effect="#path-effect4207"
       inkscape:original-d="m 154.17074,1030.3214 c 8.7094,3.9272 20.27264,-6.3925 23.12152,-22.7285"
       inkscape:connector-curvature="0" />
    <path
       inkscape:connector-curvature="0"
       inkscape:original-d="m 190.98137,1035.527 c -7.94736,1.5392 -15.11022,-11.4217 -13.86596,-27.9383"
       inkscape:path-effect="#path-effect4211"
       id="path4209"
       d="m 190.98137,1035.527 c 0.0446,0.2304 -2.25698,2.7809 -6.7894,0.1487 -2.23838,-1.2915 -4.25215,-3.4149 -5.75892,-6.232 -0.6473,-1.1878 -1.21904,-2.4577 -1.70181,-3.8026 -1.75899,-4.9002 -1.91483,-9.5973 -1.53473,-12.8915 0.38224,-3.3126 1.26684,-5.21 1.9189,-5.1609 0.71153,0.054 1.11119,2.0354 1.63548,5.0806 0.51884,3.0134 1.18548,7.1749 2.66398,11.2898 0.41219,1.1472 0.8635,2.2273 1.35515,3.2547 1.18622,2.4224 2.24218,4.0998 3.6121,5.3778 2.12219,2.0165 4.47814,2.3101 4.59925,2.9354 z"
       style="fill:#000000;fill-rule:evenodd;stroke:none;stroke-width:1px;stroke-linecap:butt;stroke-linejoin:miter;stroke-opacity:1" />
    <path
       style="fill:#e6e6e6;fill-rule:evenodd;stroke:#afafaf;stroke-width:1px;stroke-linecap:butt;stroke-linejoin:miter;stroke-opacity:1"
       d="m 78.202871,970.23729 c -0.283887,-0.0214 -0.610479,0.34685 -0.921875,1.01954 -0.505355,0.82926 -1.102953,2.10913 -1.853515,3.70312 -1.365179,2.89927 -3.269066,6.83677 -6.179688,10.35156 -0.624227,0.75381 -1.266949,1.45455 -1.929687,2.10938 -1.999859,1.96399 -3.823186,3.27533 -5.712891,4.05664 -3.335968,1.41511 -6.017944,0.76098 -6.347656,1.49219 -0.151525,0.33604 1.876791,3.37278 7.425781,2.29687 2.707413,-0.53117 5.522485,-1.9469 8.03125,-4.2793 0.829375,-0.76688 1.621282,-1.60423 2.367188,-2.50976 0.312743,-0.37967 0.593454,-0.76682 0.876953,-1.15235 -2.823541,8.81182 -8.018414,20.25022 -18.076172,29.00392 l -0.0078,0.01 c -10.502142,9.3077 -23.298932,12.9196 -32.541015,14.4531 -9.37712,1.5559 -15.3238963,1.1635 -15.4023443,2.0039 0,0 0,0 0,0 -0.03183,0.5009 5.8402413,2.236 15.8164063,1.5234 9.818322,-0.7013 23.709244,-4.0247 35.425781,-14.2265 l 0.0078,-0.01 c 11.249428,-9.9658 16.36785,-22.76827 18.466797,-32.32417 0.05957,0.17695 0.10619,0.35176 0.169922,0.5293 0.482763,1.34488 1.055832,2.61491 1.703125,3.80273 1.506775,2.81708 3.519435,4.94095 5.757812,6.23242 4.532418,2.63212 6.833682,0.08 6.789062,-0.15039 -0.121104,-0.62531 -2.477422,-0.91904 -4.599609,-2.93554 -1.369927,-1.27802 -2.425105,-2.95463 -3.611328,-5.37696 -0.491656,-1.02742 -0.943283,-2.10672 -1.355468,-3.2539 -1.478497,-4.11488 -2.145227,-8.27759 -2.664063,-11.29102 -0.300999,-1.74823 -0.561842,-3.12808 -0.863281,-4.01172 -0.132038,-0.64295 -0.344704,-1.02068 -0.595703,-1.06445 -0.03861,-0.007 -0.07953,0.0162 -0.119141,0.0215 -0.01961,-0.005 -0.03654,-0.0239 -0.05664,-0.0254 z"
       id="path4213"
       inkscape:connector-curvature="0" />
  </g>
</svg>
